<svg id="Capa_1" enable-background="new 0 0 512 512" height="512" viewBox="0 0 512 512" width="512" xmlns="http://www.w3.org/2000/svg"><g><g><path d="m17.137 119.849-9.604 279.323v17.761c0 8.321 6.745 15.066 15.066 15.066h202.15c-1.08-3.739-1.522-7.749-1.156-11.914 1.405-15.984 14.56-28.734 30.581-29.609 18.796-1.027 34.359 13.911 34.359 32.483 0 3.138-.453 6.169-1.282 9.04h202.15c8.321 0 15.066-6.745 15.066-15.066v-16.757-284.752c0-8.321-6.745-15.066-15.066-15.066h-233.401z" fill="#e49824"/></g><g><g><path d="m459.161 100.357v316.575c0 8.321-6.745 15.066-15.066 15.066h45.306c8.321 0 15.066-6.745 15.066-15.066v-16.108-285.4c0-8.321-6.745-15.066-15.066-15.066h-30.24z" fill="#df751c"/></g></g><g><path d="m256 390.426v-289.786c-23.364-13.213-49.616-20.638-77.368-20.638-14.52 0-28.628 2.034-42.127 5.865-26.329 7.473-53.645 10.875-81.013 10.875h-37.915c-5.547 0-10.044 4.497-10.044 10.044v294.038c0 5.547 4.497 10.044 10.044 10.044h37.914c27.368 0 54.685-3.403 81.013-10.875 13.499-3.831 27.608-5.865 42.127-5.865 17.974 0 35.313 3.132 51.652 8.916 5.952-7.673 15.254-12.618 25.717-12.618z" fill="#eaeaea"/></g><g><path d="m256 390.426v-289.786c-14.096-7.972-29.249-13.819-45.143-17.217v265.801c0 1.757-1.593 3.099-3.319 2.769-9.406-1.799-19.06-2.748-28.907-2.748-14.52 0-28.628 2.034-42.127 5.865-26.328 7.473-53.645 10.875-81.013 10.875h-47.958v34.841c0 5.547 4.497 10.044 10.044 10.044h37.914c27.368 0 54.685-3.403 81.013-10.875 13.499-3.831 27.608-5.865 42.127-5.865 17.974 0 35.313 3.132 51.652 8.916 5.952-7.675 15.254-12.62 25.717-12.62z" fill="#c6d0da"/></g><g><path d="m504.467 328.8c4.161 0 7.533-3.372 7.533-7.533v-205.843c0-12.461-10.138-22.599-22.599-22.599h-231.999c-24.707-13.496-51.19-20.356-78.77-20.356-14.935 0-29.801 2.07-44.184 6.152-21.399 6.074-44.236 9.572-67.876 10.397-4.158.145-7.411 3.633-7.266 7.791.146 4.158 3.616 7.425 7.792 7.265 24.853-.867 48.898-4.554 71.464-10.96 13.044-3.702 26.526-5.579 40.07-5.579 24.386 0 47.859 5.908 69.835 17.567v278.506c-2.131.498-3.029.531-7.047 2.044-5.05 1.981-9.604 4.954-13.417 8.685-16.041-5.133-32.624-7.741-49.37-7.741-14.935 0-29.801 2.07-44.184 6.152-24.756 7.026-51.321 10.589-78.956 10.589h-37.916c-1.079.004-2.697-1.243-2.511-4.164v-292.386c0-1.385 1.127-2.511 2.511-2.511h13.496c4.16 0 7.533-3.372 7.533-7.533s-3.373-7.533-7.533-7.533h-13.496c-9.692 0-17.577 7.885-17.577 17.577v310.145c0 12.461 10.138 22.599 22.599 22.599h202.15c13.562-2.323 2.756-12.31 7.866-25.403 2.369-6.232 7.17-11.281 13.203-13.994.467-.073 4.282-2.389 11.467-2.143 13.19.672 23.715 11.614 23.715 24.968 0 2.344-.332 4.683-.987 6.951-1.154 3.997 1.152 8.173 5.149 9.327.434.125 204.239.295 204.239.295 12.461 0 22.599-10.138 22.599-22.599v-60.072c0-4.161-3.372-7.533-7.533-7.533s-7.533 3.372-7.533 7.533v60.072c0 4.154-3.379 7.533-7.533 7.533h-193.388c.317-6.11-1.309-14.277-4.988-20.934-1.676-2.958-3.803-6.071-7.481-9.671-5.661-5.359-12.556-8.851-20.01-10.258v-275.712h225.867c4.154 0 7.533 3.379 7.533 7.533v205.843c0 4.16 3.372 7.533 7.533 7.533zm-481.868 95.666c-3.715 0-6.802-2.705-7.415-6.246.785.107 1.579.182 2.393.182h37.914c29.027 0 56.975-3.755 83.07-11.161 13.045-3.702 26.526-5.579 40.07-5.579 13.685 0 27.256 1.919 40.459 5.708-.349.403-3.722 9.829-3.13 17.096z"/><path d="m96.047 326.956c0 4.161 3.373 7.533 7.533 7.533s7.533-3.372 7.533-7.533v-36.489l27.281 39.505c2.217 3.201 5.914 4.563 9.415 3.468 3.576-1.117 5.886-4.466 5.886-8.605l-.568-58.719c-.04-4.136-3.405-7.461-7.531-7.461-.025 0-.05 0-.075 0-4.16.04-7.5 3.446-7.46 7.606l.36 37.238-28.644-41.477c-1.873-2.713-5.293-3.89-8.44-2.911-3.148.981-5.291 3.895-5.291 7.192v60.653z"/><path d="m104.221 156.382c-4.16 0-7.533 3.372-7.533 7.533v60.767c0 4.161 3.373 7.533 7.533 7.533s7.533-3.372 7.533-7.533v-23.893h26.985v23.893c0 4.161 3.373 7.533 7.533 7.533s7.533-3.372 7.533-7.533v-60.767c0-4.161-3.373-7.533-7.533-7.533s-7.533 3.372-7.533 7.533v21.808h-26.985v-21.808c0-4.161-3.373-7.533-7.533-7.533z"/><path d="m75.551 274.276c4.16 0 7.533-3.372 7.533-7.533s-3.373-7.533-7.533-7.533h-25.371c-4.16 0-7.533 3.372-7.533 7.533v60.213c0 4.161 3.373 7.533 7.533 7.533h25.371c4.16 0 7.533-3.372 7.533-7.533s-3.373-7.533-7.533-7.533h-17.838v-15.04h15.967c4.16 0 7.533-3.372 7.533-7.533s-3.373-7.533-7.533-7.533h-15.967v-15.041z"/><path d="m202.231 172.004c4.16 0 7.533-3.372 7.533-7.533s-3.373-7.533-7.533-7.533h-25.371c-4.16 0-7.533 3.372-7.533 7.533v60.212c0 4.161 3.373 7.533 7.533 7.533h25.371c4.16 0 7.533-3.372 7.533-7.533s-3.373-7.533-7.533-7.533h-17.838v-15.04h15.968c4.16 0 7.533-3.372 7.533-7.533s-3.373-7.533-7.533-7.533h-15.968v-15.04z"/><path d="m167.973 325.997c0 .502.051.992.145 1.467.124 1.821.897 3.544 2.2 4.838 1.411 1.401 3.319 2.186 5.307 2.186h.029c.505-.002 12.414-.048 17.173-.131 17.804-.311 30.727-15.824 30.727-36.887 0-22.141-12.597-37.018-31.347-37.018h-16.701c-2.001 0-3.919.795-5.332 2.212-1.413 1.415-2.206 3.335-2.202 5.335v.046.002 57.95zm24.234-50.479c15.496 0 16.281 18.286 16.281 21.952 0 10.724-4.924 21.63-15.924 21.823-2.169.038-5.974.069-9.431.09-.023-6.959-.051-16.951-.051-21.978 0-4.205-.017-14.645-.029-21.887z"/><path d="m47.512 172.347h9.179v53.234c0 4.161 3.373 7.533 7.533 7.533s7.533-3.372 7.533-7.533v-53.234h9.314c4.16 0 7.533-3.372 7.533-7.533s-3.373-7.533-7.533-7.533h-33.559c-4.16 0-7.533 3.372-7.533 7.533s3.373 7.533 7.533 7.533z"/></g></g></svg>